Coordinates
version=1
nRows=17
nColumns=23
inDegrees=yes

Units are S.I. units (second, meters, Newtons, ...)
If the header above contains a line with 'inDegrees', this indicates whether rotational values are in degrees (yes) or radians (no).

endheader
time	pelvis_tilt	pelvis_list	pelvis_rotation	pelvis_tx	pelvis_ty	pelvis_tz	hip_flexion_r	hip_adduction_r	hip_rotation_r	knee_angle_r	knee_angle_r_beta	ankle_angle_r	subtalar_angle_r	mtp_angle_r	hip_flexion_l	hip_adduction_l	hip_rotation_l	knee_angle_l	knee_angle_l_beta	ankle_angle_l	subtalar_angle_l	mtp_angle_l
     15.00000000	    -13.58835824	      1.47714670	     -5.28935035	      2.17728894	      0.96955567	      1.04587465	     55.26099613	      1.33504721	     -4.12916871	     45.01170305	      0.78560242	      1.68057025	    -15.48073936	      0.00000000	    -18.06596153	      4.36773486	    -13.82861210	     20.53652442	      0.35842997	    -21.97690887	    -12.65500166	      0.00000000
     15.00666667	    -13.08611309	      1.78365299	     -4.99937550	      2.17878595	      0.97073032	      1.04609356	     53.72641386	      0.54552499	     -5.53165954	     41.11826786	      0.71764916	      1.83044729	    -11.49883066	      0.00000000	    -18.42815626	      4.45885274	    -13.61523408	     23.90832582	      0.41727900	    -21.66690050	    -13.93807485	      0.00000000
     15.01333333	    -12.80848130	      2.28813303	     -4.86428074	      2.17979607	      0.97096300	      1.04676892	     52.50368582	     -0.02985082	     -6.36767194	     37.66492912	      0.65737703	      1.62247579	     -8.19324603	      0.00000000	    -18.23422538	      4.65762670	    -13.66280178	     27.85208628	      0.48611061	    -21.34329641	    -15.37835639	      0.00000000
     15.02000000	    -11.93540966	      2.26279850	     -4.49186892	      2.18119760	      0.97188536	      1.04707090	     50.49973066	     -0.64011676	     -8.31256904	     34.69361806	      0.60551786	      1.59117575	     -4.05200175	      0.00000000	    -18.53871480	      4.17420890	    -13.81145473	     32.12661564	      0.56071522	    -20.94051226	    -16.18530772	      0.00000000
     15.02666667	    -11.60621304	      2.84605957	     -4.59619407	      2.18167509	      0.97122576	      1.04826970	     49.33281986	     -0.94124102	     -8.65956642	     32.28846370	      0.56354000	      1.05397202	     -1.80512096	      0.00000000	    -17.95942233	      4.34902242	    -14.19601674	     36.74995876	      0.64140778	    -20.85220130	    -17.78136042	      0.00000000
     15.03333333	    -10.55834974	      2.26508560	     -4.17194415	      2.18291047	      0.97171236	      1.04866395	     47.04751288	     -1.11717206	    -11.15001780	     30.28183482	      0.52851772	      0.75089712	      1.25645301	      0.00000000	    -18.08595844	      3.02339104	    -14.69243495	     41.67194769	      0.72731269	    -20.81941592	    -18.68177775	      0.00000000
     15.04000000	    -10.06630574	      2.30402579	     -4.15072107	      2.18336905	      0.97063208	      1.04969813	     45.65000478	     -1.19604617	    -12.24840303	     28.96823747	      0.50559112	      0.19803323	      2.45909898	      0.00000000	    -17.37393107	      2.42580564	    -15.18310590	     46.75035270	      0.81594758	    -21.12296994	    -20.40293018	      0.00000000
     15.04666667	     -8.92093239	      1.59221012	     -3.92386998	      2.18422694	      0.97038841	      1.05038398	     43.30983006	     -0.99300112	    -14.47535698	     27.99891721	      0.48867329	     -0.23834194	      3.68361273	      0.00000000	    -17.34980225	      0.93456379	    -15.72610224	     51.82522368	      0.90452079	    -21.45756200	    -21.97687256	      0.00000000
     15.05333333	     -8.01161362	      1.03222221	     -3.80028351	      2.18477066	      0.96925898	      1.05121717	     41.33352768	     -0.75905591	    -16.30842611	     27.61917437	      0.48204553	     -0.54149792	      3.81713431	      0.00000000	    -16.91948935	     -0.39406243	    -16.18288985	     56.94833931	      0.99393602	    -21.92001237	    -23.91828744	      0.00000000
     15.06000000	     -7.13234614	      0.40047825	     -3.72623779	      2.18511759	      0.96759904	      1.05202661	     39.43200133	     -0.43678054	    -18.08750280	     27.76891343	      0.48465897	     -0.63113841	      3.34440919	      0.00000000	    -16.34933779	     -1.80541631	    -16.61462463	     62.07428107	      1.08340059	    -22.30189785	    -25.82014570	      0.00000000
     15.06666667	     -6.13585207	     -0.43445210	     -3.66470315	      2.18534554	      0.96573875	      1.05284003	     37.35924470	      0.08679311	    -19.85317830	     28.28381138	      0.49364563	     -0.33142828	      2.42848218	      0.00000000	    -15.83804575	     -3.47752804	    -17.06112578	     67.14621755	      1.17192258	    -22.43939969	    -27.35701760	      0.00000000
     15.07333333	     -5.26457322	     -1.26996379	     -3.66324304	      2.18519005	      0.96326387	      1.05363409	     35.48040399	      0.69356714	    -21.27991143	     29.22710462	      0.51010921	      0.32408488	      1.06811649	      0.00000000	    -15.06189615	     -5.13044436	    -17.39773340	     72.18525063	      1.25987029	    -22.19353396	    -28.36994215	      0.00000000
     15.08000000	     -4.52078852	     -1.94091740	     -3.79742945	      2.18459836	      0.96016618	      1.05446551	     33.88570939	      1.22321056	    -22.23488111	     30.71786243	      0.53612784	      1.60128955	     -0.42630184	      0.00000000	    -14.01226898	     -6.51529246	    -17.59835630	     77.12600421	      1.34610271	    -21.64070905	    -28.94156190	      0.00000000
     15.08666667	     -3.93126320	     -2.88006298	     -3.83565362	      2.18362419	      0.95681929	      1.05509739	     32.35597253	      2.07870121	    -22.98526393	     32.20281194	      0.56204510	      2.92713796	     -2.17743554	      0.00000000	    -12.62845196	     -8.18900522	    -17.53496842	     82.04234233	      1.43190900	    -20.72488400	    -29.18017428	      0.00000000
     15.09333333	     -3.17425151	     -3.60894951	     -4.03031143	      2.18223518	      0.95348480	      1.05567254	     30.78774404	      2.76435968	    -23.28900100	     34.13640758	      0.59579271	      4.99016133	     -3.79866843	      0.00000000	    -11.32268909	     -9.46535007	    -17.34836923	     86.66835679	      1.51264818	    -19.93219037	    -29.35592593	      0.00000000
     15.10000000	     -2.95932244	     -4.48643396	     -4.10514382	      2.18027082	      0.94958317	      1.05601878	     29.75209756	      3.70915327	    -23.27895776	     35.95681229	      0.62756476	      6.96357425	     -5.49004275	      0.00000000	     -9.11152111	    -10.82998758	    -16.64520843	     91.34533171	      1.59427679	    -18.72402946	    -29.40021805	      0.00000000
     15.10666667	     -2.99283269	     -5.06535796	     -4.34978233	      2.17769732	      0.94537030	      1.05631016	     29.12488154	      4.44389258	    -22.75095997	     38.02979200	      0.66374508	      8.94293074	     -7.43032862	      0.00000000	     -6.43048078	    -11.71668349	    -15.77731663	     95.78973734	      1.67184631	    -17.82615236	    -29.43669790	      0.00000000
